<svg id="Layer_1" data-name="Layer 1" xmlns="http://www.w3.org/2000/svg" viewBox="0 0 152 311.37"><defs><style>.cls-1{fill:#cea25b;}.cls-2{fill:#a57530;}</style></defs><path class="cls-1" d="M639.57,555c-20.25,0-39.27-1.3-53.58-3.65-15.81-2.6-21.42-5.85-21.42-7.85a1.56,1.56,0,0,1,.32-.84l.07-.11L639.57,328l74.61,214.51.08.11a1.53,1.53,0,0,1,.31.84c0,2-5.61,5.25-21.42,7.85C678.85,553.7,659.82,555,639.57,555Z" transform="translate(-563.57 -244.63)"/><path class="cls-2" d="M639.57,331.09,713.2,542.76l.08.24.15.22a.74.74,0,0,1,.14.28h0s-.9,3.63-20.58,6.87c-14.25,2.34-33.22,3.63-53.42,3.63s-39.16-1.29-53.41-3.63c-19.7-3.24-20.59-6.84-20.59-6.86a.67.67,0,0,1,.14-.29l.15-.22.09-.24,73.62-211.67m0-6.09L564.06,542.1a2.53,2.53,0,0,0-.49,1.4c0,6.9,34,12.5,76,12.5s76-5.6,76-12.5a2.45,2.45,0,0,0-.49-1.4L639.57,325Z" transform="translate(-563.57 -244.63)"/><path class="cls-1" d="M639.57,536.63c-20.25,0-39.27-1.3-53.58-3.65-15.81-2.6-21.42-5.85-21.42-7.85a1.56,1.56,0,0,1,.32-.84l.07-.11,74.61-214.51,74.61,214.51.08.11a1.53,1.53,0,0,1,.31.84c0,2-5.61,5.25-21.42,7.85C678.85,535.33,659.82,536.63,639.57,536.63Z" transform="translate(-563.57 -244.63)"/><path class="cls-2" d="M639.57,312.72,713.2,524.38l.08.25.15.22a.74.74,0,0,1,.14.28h0s-.9,3.63-20.58,6.86c-14.25,2.35-33.22,3.64-53.42,3.64s-39.16-1.29-53.41-3.64c-19.7-3.24-20.59-6.83-20.59-6.86a.74.74,0,0,1,.14-.28l.15-.22.09-.25,73.62-211.66m0-6.09-75.51,217.1a2.5,2.5,0,0,0-.49,1.4c0,6.9,34,12.5,76,12.5s76-5.6,76-12.5a2.43,2.43,0,0,0-.49-1.4l-75.51-217.1Z" transform="translate(-563.57 -244.63)"/><path class="cls-1" d="M639.57,515.63c-20.25,0-39.27-1.3-53.58-3.65-15.81-2.6-21.42-5.85-21.42-7.85a1.56,1.56,0,0,1,.32-.84l.07-.11,74.61-214.51,74.61,214.51.08.11a1.53,1.53,0,0,1,.31.84c0,2-5.61,5.25-21.42,7.85C678.85,514.33,659.82,515.63,639.57,515.63Z" transform="translate(-563.57 -244.63)"/><path class="cls-2" d="M639.57,291.72,713.2,503.38l.08.25.15.22a.74.74,0,0,1,.14.28h0s-.9,3.63-20.58,6.86c-14.25,2.35-33.22,3.64-53.42,3.64s-39.16-1.29-53.41-3.64c-19.7-3.24-20.59-6.83-20.59-6.86a.74.74,0,0,1,.14-.28l.15-.22.09-.25,73.62-211.66m0-6.09-75.51,217.1a2.5,2.5,0,0,0-.49,1.4c0,6.9,34,12.5,76,12.5s76-5.6,76-12.5a2.43,2.43,0,0,0-.49-1.4l-75.51-217.1Z" transform="translate(-563.57 -244.63)"/><path class="cls-1" d="M639.57,495.63c-20.25,0-39.27-1.3-53.58-3.65-15.81-2.6-21.42-5.85-21.42-7.85a1.56,1.56,0,0,1,.32-.84l.07-.11,74.61-214.51,74.61,214.51.08.11a1.53,1.53,0,0,1,.31.84c0,2-5.61,5.25-21.42,7.85C678.85,494.33,659.82,495.63,639.57,495.63Z" transform="translate(-563.57 -244.63)"/><path class="cls-2" d="M639.57,271.72,713.2,483.38l.08.25.15.22a.74.74,0,0,1,.14.28h0s-.9,3.63-20.58,6.86c-14.25,2.35-33.22,3.64-53.42,3.64s-39.16-1.29-53.41-3.64c-19.7-3.24-20.59-6.83-20.59-6.86a.74.74,0,0,1,.14-.28l.15-.22.09-.25,73.62-211.66m0-6.09-75.51,217.1a2.5,2.5,0,0,0-.49,1.4c0,6.9,34,12.5,76,12.5s76-5.6,76-12.5a2.43,2.43,0,0,0-.49-1.4l-75.51-217.1Z" transform="translate(-563.57 -244.63)"/><path class="cls-1" d="M639.57,474.63c-20.25,0-39.27-1.3-53.58-3.65-15.81-2.6-21.42-5.85-21.42-7.85a1.56,1.56,0,0,1,.32-.84l.07-.11,74.61-214.51,74.61,214.51.08.11a1.53,1.53,0,0,1,.31.84c0,2-5.61,5.25-21.42,7.85C678.85,473.33,659.82,474.63,639.57,474.63Z" transform="translate(-563.57 -244.63)"/><path class="cls-2" d="M639.57,250.72,713.2,462.38l.08.25.15.22a.74.74,0,0,1,.14.28h0s-.9,3.63-20.58,6.86c-14.25,2.35-33.22,3.64-53.42,3.64s-39.16-1.29-53.41-3.64c-19.7-3.24-20.59-6.83-20.59-6.86a.74.74,0,0,1,.14-.28l.15-.22.09-.25,73.62-211.66m0-6.09-75.51,217.1a2.5,2.5,0,0,0-.49,1.4c0,6.9,34,12.5,76,12.5s76-5.6,76-12.5a2.43,2.43,0,0,0-.49-1.4l-75.51-217.1Z" transform="translate(-563.57 -244.63)"/></svg>