<svg id="Layer_2" data-name="Layer 2" xmlns="http://www.w3.org/2000/svg" viewBox="0 0 293 293.5"><defs><style>.cls-1{fill:#ffb4b4;stroke:#dc7676;stroke-miterlimit:10;stroke-width:5px;}</style></defs><title>pink</title><path class="cls-1" d="M999.84,604h0a144,144,0,1,0-248.54,0h0s-13.1,33.1-9.32,47.59c5.14,19.69,26.47-29,37.81-27.73S789.85,640.25,793,644s11.34-3.15,17.64-14.49c14-25.13,22.69,12.6,33.4,12s15.13-5,22.69-5.67,19.54,15.75,26.47,15.75,13.86-2.52,20.17-15.12,17-30.49,22.68-24.58c14.5,15.13-1.89,71.21,10.72,63s11.34-47.89,18.9-50.42,7.56,14.5,17,13.87,8.82-6.93,16.38-6.3,8.19,16.38,14.5,12S1016.35,608.71,999.84,604Z" transform="translate(-729.05 -384.73)"/></svg>