<svg id="Layer_1" data-name="Layer 1" xmlns="http://www.w3.org/2000/svg" viewBox="0 0 318.72 173.07"><defs><style>.cls-1{fill:#ffcae2;}.cls-2{fill:#e88dba;}</style></defs><path class="cls-1" d="M632,516.38c-23.47,0-45.52-1.14-62.11-3.21-24.61-3.08-24.89-6.64-24.89-6.79a.75.75,0,0,1,.15-.38l.11-.17,15.83-73.17-.1-.36c0-2.71,24.39-7.92,71-7.92,46.2,0,70.56,5.12,71,7.93a.28.28,0,0,0,0,.09l-.15,1.12h.46L719,506.23l0,.19C718.58,510.49,687.37,516.38,632,516.38Z" transform="translate(-401.36 -344.32)"/><path class="cls-2" d="M632,425.38a445.14,445.14,0,0,1,48.57,2.37c17.1,2,20.71,4.25,21.37,4.84l-.23,1.93h.77L718,506.25c-.37.48-3.52,3.53-26,6.17-16.29,1.91-37.6,3-60,3s-43.71-1-60-3c-21-2.47-25.14-5.3-25.88-6l.09-.13.08-.39L562,433.11l.1-.47,0-.08c.77-.65,4.57-2.87,21.33-4.81A445.34,445.34,0,0,1,632,425.38m0-2c-39.77,0-72,4-72,9a1.07,1.07,0,0,0,.06.3l-15.73,72.75a1.66,1.66,0,0,0-.33.95c0,6.08,39.4,11,88,11,48.23,0,87.39-4.85,88-10.86h.11l-16-74H704s0-.09,0-.14c0-5-32.24-9-72-9Z" transform="translate(-401.36 -344.32)"/><path class="cls-1" d="M403.26,457.45l.27-.35-1-.64c-.21-.33-1.3-3.17,8.42-19.11C418,425.68,428.53,411,440.48,396c24.89-31.28,45.41-50.64,50.16-50.64a.54.54,0,0,1,.3.06l.14.19.24.16,66.61,32.92-108,135.8Z" transform="translate(-401.36 -344.32)"/><path class="cls-2" d="M490.4,346.35l.05.06.43.22L556.38,379,449.9,512.86l-45.36-55.43.48-.59-1.66-1c0-.89.41-5.13,9.52-19.74a498.76,498.76,0,0,1,60.24-75.79c12.1-12.11,16.26-13.73,17.28-13.94m.24-2c-5.81,0-27.7,21.81-50.94,51-24.75,31.12-41.67,58.86-37.78,62l.13.07-.08.09L449.92,516,559.49,378.3l-67.73-33.47a1.1,1.1,0,0,0-.2-.23,1.4,1.4,0,0,0-.92-.28Z" transform="translate(-401.36 -344.32)"/><path class="cls-2" d="M451,515.23a.82.82,0,0,1-.51-.13c-.12-.1-2.73-2.53,10.19-23.71,8.7-14.27,21.53-32.24,36.14-50.6,30.87-38.81,55.49-62,61.47-62a.76.76,0,0,1,.51.13c.12.09,2.73,2.53-10.18,23.71-8.7,14.26-21.54,32.23-36.15,50.6C481.62,492,457,515.23,451,515.23Z" transform="translate(-401.36 -344.32)"/><path class="cls-2" d="M558.11,379.81c.12,1.09-.29,6.12-11.38,24-8.64,13.95-21.09,31.28-35,48.81-31.58,39.71-55.21,61.08-60.5,61.61-.12-1.09.29-6.12,11.38-24,8.65-14,21.09-31.28,35-48.81,31.58-39.7,55.2-61.08,60.5-61.6m.19-2c-7.1,0-33.85,26.66-62.25,62.36-30.26,38-50.93,71.94-46.18,75.72a1.78,1.78,0,0,0,1.14.35c7.1,0,33.85-26.66,62.25-62.37,30.26-38,50.93-71.94,46.18-75.72a1.78,1.78,0,0,0-1.14-.34Z" transform="translate(-401.36 -344.32)"/><path class="cls-1" d="M632,498.86c-23.47,0-45.52-1.14-62.11-3.21C545.27,492.57,545,489,545,488.86a.75.75,0,0,1,.15-.38l.11-.17,15.83-73.17-.1-.36s.42-2.82,20.22-5.29c13.56-1.69,31.59-2.63,50.79-2.63s37.22.94,50.78,2.63c18.55,2.32,20.08,4.94,20.21,5.32,0,0-.16,1.19-.16,1.19h.46L719,488.71l0,.19C718.58,493,687.37,498.86,632,498.86Z" transform="translate(-401.36 -344.32)"/><path class="cls-2" d="M632,407.86a445.14,445.14,0,0,1,48.57,2.37c17.1,2,20.71,4.25,21.37,4.84L701.7,417h.77L718,488.72c-.37.49-3.52,3.54-26,6.17-16.29,1.92-37.6,3-60,3s-43.71-1.05-60-3c-21-2.46-25.14-5.29-25.88-6l.09-.13.08-.39L562,415.58l.1-.46,0-.09c.77-.64,4.57-2.87,21.33-4.8A445.34,445.34,0,0,1,632,407.86m0-2c-39.77,0-72,4-72,9a1.07,1.07,0,0,0,.06.3l-15.73,72.75a1.63,1.63,0,0,0-.33.95c0,6.08,39.4,11,88,11,48.23,0,87.39-4.85,88-10.86h.11l-16-74H704c0-.05,0-.09,0-.14,0-5-32.24-9-72-9Z" transform="translate(-401.36 -344.32)"/><path class="cls-1" d="M632,479.86c-23.47,0-45.52-1.14-62.11-3.21C545.27,473.57,545,470,545,469.86a.75.75,0,0,1,.15-.38l.11-.17,15.83-73.17-.1-.36s.42-2.82,20.22-5.29c13.56-1.69,31.59-2.63,50.79-2.63s37.22.94,50.78,2.63c18.55,2.32,20.08,4.94,20.21,5.32,0,0-.16,1.19-.16,1.19h.46L719,469.71l0,.19C718.58,474,687.37,479.86,632,479.86Z" transform="translate(-401.36 -344.32)"/><path class="cls-2" d="M632,388.86a445.14,445.14,0,0,1,48.57,2.37c17.1,2,20.71,4.25,21.37,4.84L701.7,398h.77L718,469.72c-.37.49-3.52,3.54-26,6.17-16.29,1.92-37.6,3-60,3s-43.71-1.05-60-3c-21-2.46-25.14-5.29-25.88-6l.09-.13.08-.39L562,396.58l.1-.46,0-.09c.77-.64,4.57-2.87,21.33-4.8A445.34,445.34,0,0,1,632,388.86m0-2c-39.77,0-72,4-72,9a1.07,1.07,0,0,0,.06.3l-15.73,72.75a1.63,1.63,0,0,0-.33.95c0,6.08,39.4,11,88,11,48.23,0,87.39-4.85,88-10.86h.11l-16-74H704c0-.05,0-.09,0-.14,0-5-32.24-9-72-9Z" transform="translate(-401.36 -344.32)"/><path class="cls-1" d="M632,461.86c-23.47,0-45.52-1.14-62.11-3.21C545.27,455.57,545,452,545,451.86a.75.75,0,0,1,.15-.38l.11-.17,15.83-73.17-.1-.36s.42-2.82,20.22-5.29c13.56-1.69,31.59-2.63,50.79-2.63s37.22.94,50.78,2.63c18.55,2.32,20.08,4.94,20.21,5.32,0,0-.16,1.19-.16,1.19h.46L719,451.71l0,.19C718.58,456,687.37,461.86,632,461.86Z" transform="translate(-401.36 -344.32)"/><path class="cls-2" d="M632,370.86a445.14,445.14,0,0,1,48.57,2.37c17.1,2,20.71,4.25,21.37,4.84L701.7,380h.77L718,451.72c-.37.49-3.52,3.54-26,6.17-16.29,1.92-37.6,3-60,3s-43.71-1.05-60-3c-21-2.46-25.14-5.29-25.88-6l.09-.13.08-.39L562,378.58l.1-.46,0-.09c.77-.64,4.57-2.87,21.33-4.8A445.34,445.34,0,0,1,632,370.86m0-2c-39.77,0-72,4-72,9a1.07,1.07,0,0,0,.06.3l-15.73,72.75a1.63,1.63,0,0,0-.33.95c0,6.08,39.4,11,88,11,48.23,0,87.39-4.85,88-10.86h.11l-16-74H704c0-.05,0-.09,0-.14,0-5-32.24-9-72-9Z" transform="translate(-401.36 -344.32)"/><path class="cls-1" d="M632,444.86c-23.47,0-45.52-1.14-62.11-3.21C545.27,438.57,545,435,545,434.86a.75.75,0,0,1,.15-.38l.11-.17,15.83-73.17-.1-.36s.42-2.82,20.22-5.29c13.56-1.69,31.59-2.63,50.79-2.63s37.22.94,50.78,2.63c18.55,2.32,20.08,4.94,20.21,5.32,0,0-.16,1.19-.16,1.19h.46L719,434.71l0,.19C718.58,439,687.37,444.86,632,444.86Z" transform="translate(-401.36 -344.32)"/><path class="cls-2" d="M632,353.86a445.14,445.14,0,0,1,48.57,2.37c17.1,2,20.71,4.25,21.37,4.84L701.7,363h.77L718,434.72c-.37.49-3.52,3.54-26,6.17-16.29,1.92-37.6,3-60,3s-43.71-1.05-60-3c-21-2.46-25.14-5.29-25.88-6l.09-.13.08-.39L562,361.58l.1-.46,0-.09c.77-.64,4.57-2.87,21.33-4.8A445.34,445.34,0,0,1,632,353.86m0-2c-39.77,0-72,4-72,9a1.07,1.07,0,0,0,.06.3l-15.73,72.75a1.63,1.63,0,0,0-.33.95c0,6.08,39.4,11,88,11,48.23,0,87.39-4.85,88-10.86h.11l-16-74H704c0-.05,0-.09,0-.14,0-5-32.24-9-72-9Z" transform="translate(-401.36 -344.32)"/></svg>